# xmcd
#
# Track frame offsets: 
#        150
#        31505
#        48449
#        65867
#        84054
#        102666
#        127764
#        141695
#        160363
#        175095
#        192920
#        215259
#        239883
#        262772
#        273805
#
# Disc length: 3954 seconds
#
# Revision: 1
# Processed by: cddbd v1.5.2PL0 Copyright (c) Steve Scherf et al.
# Submitted via: ExactAudioCopy v0.95a5
#
DISCID=d20f700f
DTITLE=Various Artist - New Age - Spray
DYEAR=2002
DGENRE=New Age
TTITLE0=Boy On Dolphin
TTITLE1=Moon Journey
TTITLE2=Gone With The Wind
TTITLE3=Port Of Love
TTITLE4=Lighthouse On The Seashore
TTITLE5=Prelude Of Blue
TTITLE6=Seem To Have Met Before
TTITLE7=Pretty
TTITLE8=When You Want To Be A Star
TTITLE9=Heartbroken Love
TTITLE10=The Last Waltz
TTITLE11=Penelope
TTITLE12=Adeline Ballet
TTITLE13=Love For Alainfitz
TTITLE14=Madrigal
EXTD=YEAR: 2002
EXTT0=
EXTT1=
EXTT2=
EXTT3=
EXTT4=
EXTT5=
EXTT6=
EXTT7=
EXTT8=
EXTT9=
EXTT10=
EXTT11=
EXTT12=
EXTT13=
EXTT14=
PLAYORDER=
